Miami Vice 2006 Unrated 720p BRRip H264 AAC-Rx(Phoenix-RG).mp4
      Format : MPEG-4 /AVC
      File size : 2.05 GiB
      Duration : 2h 19mn
      Bit rate : 1 800 Kbps
      Width : 1 280 pixels
      Height : 536 pixels
      Display aspect ratio : 2.35
      Frame rate : 23.976 fps
      Resolution : 24 bits
      Colorimetry : 4:2:0
      Scan type : Progressive
      Bits/(Pixel*Frame) : 0.109
      Stream size : 1.75 GiB (85%)
      
     
AUDIO:
      Format : AAC / LC
      Duration : 2h 19mn
      Bit rate : 309 Kbps
      Channel(s) : 6 channels
      Channel positions : Front: L C R, Rear: L R, LFE
      Sampling rate : 48.0 KHz
      Resolution : 16 bits
      Stream size : 307 MiB (15%)


SCREEN:
 
http://img801.imageshack.us/img801/3946/vlcsnap2010090608h02m02.jpg
 
http://img808.imageshack.us/img808/2421/vlcsnap2010090608h02m28.jpg
 
http://img809.imageshack.us/img809/8334/vlcsnap2010090608h07m26.jpg

